# xmcd CD database file
#
# Track frame offsets:
#	150
#	26125
#	54448
#	79650
#	112155
#	160920
#
# Disc length: 2704 seconds
#
# Revision: 0
# Processed by: cddbd v1.5.2PL0 Copyright (c) Steve Scherf et al.
# Submitted via: CDex 1.51
#
DISCID=470a8e06
DTITLE=Flambeau - Let's Take A Walk
DYEAR=2009
DGENRE=Jazz
TTITLE0=Take a walk
TTITLE1=Footprints
TTITLE2=Herbie 'n' Eddie
TTITLE3=Straight, no chaser
TTITLE4=Maiden voyage
TTITLE5=Chameleon
EXTD=YEAR: 2009
EXTT0=
EXTT1=
EXTT2=
EXTT3=
EXTT4=
EXTT5=
PLAYORDER=
